<mxfile host="app.diagrams.net" agent="Mozilla/5.0 (Windows NT 10.0; Win64; x64) AppleWebKit/537.36 (KHTML, like Gecko) Chrome/131.0.0.0 Safari/537.36" version="25.0.1">
  <diagram name="PÃ¡gina-1" id="sJGkDGz1VDOyO2t-Gicy">
    <mxGraphModel dx="2261" dy="746" grid="1" gridSize="10" guides="1" tooltips="1" connect="1" arrows="1" fold="1" page="1" pageScale="1" pageWidth="827" pageHeight="1169" math="0" shadow="0">
      <root>
        <mxCell id="0" />
        <mxCell id="1" parent="0" />
        <mxCell id="NBgoRhpIMuyz33h5rl3j-1" value="&lt;font style=&quot;font-size: 18px;&quot;&gt;Order&lt;/font&gt;&lt;div&gt;&lt;font size=&quot;3&quot;&gt;------------------------&lt;/font&gt;&lt;/div&gt;&lt;div&gt;&lt;font size=&quot;3&quot;&gt;+ order_id: str&lt;/font&gt;&lt;/div&gt;&lt;div&gt;&lt;font size=&quot;3&quot;&gt;+ state: str&lt;/font&gt;&lt;/div&gt;&lt;div&gt;&lt;font size=&quot;3&quot;&gt;+ observers: List[Observer]&lt;/font&gt;&lt;/div&gt;&lt;div&gt;&lt;font size=&quot;3&quot;&gt;------------------------&lt;/font&gt;&lt;/div&gt;&lt;div&gt;&lt;font size=&quot;3&quot;&gt;+ set_state(state: str): void&lt;/font&gt;&lt;/div&gt;&lt;div&gt;&lt;font size=&quot;3&quot;&gt;+ add_observer(observer: Observer): void&lt;/font&gt;&lt;/div&gt;&lt;div&gt;&lt;font size=&quot;3&quot;&gt;+ notify_observers(): void&lt;/font&gt;&lt;/div&gt;&lt;div&gt;&lt;br&gt;&lt;/div&gt;" style="ellipse;whiteSpace=wrap;html=1;" parent="1" vertex="1">
          <mxGeometry x="-190" width="356" height="280" as="geometry" />
        </mxCell>
        <mxCell id="NBgoRhpIMuyz33h5rl3j-5" value="&lt;font style=&quot;&quot;&gt;&lt;font style=&quot;font-size: 18px;&quot;&gt;OrderFactoy (abstract)&lt;br&gt;&lt;/font&gt;&lt;span style=&quot;font-size: 14px;&quot;&gt;--------------------&lt;/span&gt;&lt;/font&gt;&lt;div&gt;&lt;font style=&quot;font-size: 16px;&quot;&gt;+ create_order(order_id: str,&amp;nbsp; state: str): Order&lt;/font&gt;&lt;/div&gt;" style="ellipse;whiteSpace=wrap;html=1;" parent="1" vertex="1">
          <mxGeometry x="-390" y="320" width="380" height="160" as="geometry" />
        </mxCell>
        <mxCell id="NBgoRhpIMuyz33h5rl3j-6" value="&lt;font style=&quot;&quot;&gt;&lt;font style=&quot;font-size: 18px;&quot;&gt;Observer (abstract)&lt;br&gt;&lt;/font&gt;&lt;span style=&quot;font-size: 14px;&quot;&gt;--------------------&lt;/span&gt;&lt;/font&gt;&lt;div&gt;&lt;font size=&quot;3&quot;&gt;+ update(order: Order): void&lt;/font&gt;&lt;/div&gt;" style="ellipse;whiteSpace=wrap;html=1;" parent="1" vertex="1">
          <mxGeometry x="30" y="320" width="380" height="156.5" as="geometry" />
        </mxCell>
        <mxCell id="NBgoRhpIMuyz33h5rl3j-7" value="" style="endArrow=classic;html=1;rounded=0;exitX=0.188;exitY=0.897;exitDx=0;exitDy=0;exitPerimeter=0;" parent="1" source="NBgoRhpIMuyz33h5rl3j-1" edge="1">
          <mxGeometry relative="1" as="geometry">
            <mxPoint x="-60" y="390" as="sourcePoint" />
            <mxPoint x="-160" y="320" as="targetPoint" />
          </mxGeometry>
        </mxCell>
        <mxCell id="NBgoRhpIMuyz33h5rl3j-10" value="" style="endArrow=classic;html=1;rounded=0;exitX=0.815;exitY=0.89;exitDx=0;exitDy=0;exitPerimeter=0;" parent="1" source="NBgoRhpIMuyz33h5rl3j-1" target="NBgoRhpIMuyz33h5rl3j-6" edge="1">
          <mxGeometry relative="1" as="geometry">
            <mxPoint x="110" y="260" as="sourcePoint" />
            <mxPoint x="60" y="320" as="targetPoint" />
          </mxGeometry>
        </mxCell>
        <mxCell id="NBgoRhpIMuyz33h5rl3j-18" value="&lt;font style=&quot;font-size: 14px;&quot;&gt;EmailNotification&lt;br&gt;&lt;/font&gt;&lt;font style=&quot;font-size: 14px;&quot;&gt;(extends Observer)&lt;/font&gt;" style="ellipse;whiteSpace=wrap;html=1;" parent="1" vertex="1">
          <mxGeometry x="-70" y="510" width="230" height="83" as="geometry" />
        </mxCell>
        <mxCell id="NBgoRhpIMuyz33h5rl3j-19" value="&lt;font style=&quot;font-size: 14px;&quot;&gt;SMSNotification&lt;br&gt;(extends Observer)&lt;/font&gt;" style="ellipse;whiteSpace=wrap;html=1;" parent="1" vertex="1">
          <mxGeometry x="414" y="510" width="210" height="83" as="geometry" />
        </mxCell>
        <mxCell id="NBgoRhpIMuyz33h5rl3j-20" value="" style="endArrow=classic;html=1;rounded=0;exitX=0;exitY=1;exitDx=0;exitDy=0;entryX=0.5;entryY=0;entryDx=0;entryDy=0;" parent="1" source="NBgoRhpIMuyz33h5rl3j-6" target="NBgoRhpIMuyz33h5rl3j-18" edge="1">
          <mxGeometry relative="1" as="geometry">
            <mxPoint x="203" y="483" as="sourcePoint" />
            <mxPoint x="261" y="556" as="targetPoint" />
          </mxGeometry>
        </mxCell>
        <mxCell id="NBgoRhpIMuyz33h5rl3j-21" value="" style="endArrow=classic;html=1;rounded=0;exitX=1;exitY=1;exitDx=0;exitDy=0;entryX=0.346;entryY=-0.024;entryDx=0;entryDy=0;entryPerimeter=0;" parent="1" source="NBgoRhpIMuyz33h5rl3j-6" target="NBgoRhpIMuyz33h5rl3j-19" edge="1">
          <mxGeometry relative="1" as="geometry">
            <mxPoint x="343" y="463" as="sourcePoint" />
            <mxPoint x="335" y="513" as="targetPoint" />
          </mxGeometry>
        </mxCell>
        <mxCell id="NBgoRhpIMuyz33h5rl3j-22" value="1" style="text;html=1;align=center;verticalAlign=middle;resizable=0;points=[];autosize=1;strokeColor=none;fillColor=none;" parent="1" vertex="1">
          <mxGeometry x="-145" y="268" width="30" height="30" as="geometry" />
        </mxCell>
        <mxCell id="NBgoRhpIMuyz33h5rl3j-23" value="1..*" style="text;html=1;align=center;verticalAlign=middle;resizable=0;points=[];autosize=1;strokeColor=none;fillColor=none;" parent="1" vertex="1">
          <mxGeometry x="130" y="268" width="40" height="30" as="geometry" />
        </mxCell>
        <mxCell id="NBgoRhpIMuyz33h5rl3j-25" value="&lt;font style=&quot;font-size: 14px;&quot;&gt;ConcreteOrderFactory &lt;br&gt;&lt;/font&gt;&lt;font style=&quot;font-size: 14px;&quot;&gt;(extends OrderFactory)&lt;/font&gt;" style="ellipse;whiteSpace=wrap;html=1;" parent="1" vertex="1">
          <mxGeometry x="-400" y="520" width="255" height="80" as="geometry" />
        </mxCell>
        <mxCell id="NBgoRhpIMuyz33h5rl3j-26" value="" style="endArrow=classic;html=1;rounded=0;entryX=0.584;entryY=0.013;entryDx=0;entryDy=0;entryPerimeter=0;" parent="1" target="NBgoRhpIMuyz33h5rl3j-25" edge="1">
          <mxGeometry relative="1" as="geometry">
            <mxPoint x="-237" y="480" as="sourcePoint" />
            <mxPoint x="-245" y="520" as="targetPoint" />
          </mxGeometry>
        </mxCell>
        <mxCell id="APa_u3ObLut47s9XytXL-1" value="&lt;font style=&quot;font-size: 14px;&quot;&gt;PushNotification&lt;br&gt;(extends Observer)&lt;/font&gt;" style="ellipse;whiteSpace=wrap;html=1;" vertex="1" parent="1">
          <mxGeometry x="180" y="510" width="210" height="83" as="geometry" />
        </mxCell>
        <mxCell id="APa_u3ObLut47s9XytXL-2" value="" style="endArrow=classic;html=1;rounded=0;exitX=0;exitY=1;exitDx=0;exitDy=0;entryX=0.405;entryY=-0.012;entryDx=0;entryDy=0;entryPerimeter=0;" edge="1" parent="1" target="APa_u3ObLut47s9XytXL-1">
          <mxGeometry relative="1" as="geometry">
            <mxPoint x="250" y="476.5" as="sourcePoint" />
            <mxPoint x="210" y="533.5" as="targetPoint" />
          </mxGeometry>
        </mxCell>
      </root>
    </mxGraphModel>
  </diagram>
</mxfile>
